# xmcd CD database file
#
# Track frame offsets:
#	150
#	15487
#	32845
#	52426
#	67602
#	84119
#	105643
#	121824
#	135588
#	154230
#	172004
#	187546
#	206931
#	224200
#	240128
#
# Disc length: 3441 seconds
#
# Revision: 0
# Processed by: cddbd v1.5.2PL0 Copyright (c) Steve Scherf et al.
# Submitted via: CDex 1.51
#
DISCID=c60d6f0f
DTITLE=Jason Aldean - My Kinda Party
DYEAR=2010
DGENRE=Country
TTITLE0=Tattoos On This Town
TTITLE1=Dirt Road Anthem
TTITLE2=Church Pew or Bar Stool
TTITLE3=Just Passing Through
TTITLE4=Fly Over States
TTITLE5=My Kinda Party
TTITLE6=I Ain't Ready To Quit
TTITLE7=It Ain't Easy
TTITLE8=Country Boy's World
TTITLE9=The Heartache That Don't Stop Hurting
TTITLE10=Texas Was You
TTITLE11=Don't You Wanna Stay
TTITLE12=See You When I See You
TTITLE13=If She Could See Me Now
TTITLE14=Days Like These
EXTD=YEAR: 2010
EXTT0=
EXTT1=
EXTT2=
EXTT3=
EXTT4=
EXTT5=
EXTT6=
EXTT7=
EXTT8=
EXTT9=
EXTT10=
EXTT11=
EXTT12=
EXTT13=
EXTT14=
PLAYORDER=
